HIERARCHY
ROOT Hips
{
	OFFSET 0 0 0
	CHANNELS 6 Xposition Yposition Zposition Yrotation Xrotation Zrotation
	JOINT Spine
	{
		OFFSET -0 8.14876 -2.59742
		CHANNELS 3 Yrotation Xrotation Zrotation
		JOINT Spine1
		{
			OFFSET -0 7.67319 0
			CHANNELS 3 Yrotation Xrotation Zrotation
			JOINT Spine2
			{
				OFFSET -0 7.67319 0
				CHANNELS 3 Yrotation Xrotation Zrotation
				JOINT Spine3
				{
					OFFSET -0 7.67319 0
					CHANNELS 3 Yrotation Xrotation Zrotation
					JOINT Neck
					{
						OFFSET -0 20.4825 3.59742
						CHANNELS 3 Yrotation Xrotation Zrotation
						JOINT Head
						{
							OFFSET -0 10.186 0
							CHANNELS 3 Yrotation Xrotation Zrotation
							End Site
							{
								OFFSET 0 15 0
							}
						}
					}
					JOINT LeftShoulder
					{
						OFFSET 1.69766 8.35598 3.39532
						CHANNELS 3 Yrotation Xrotation Zrotation
						JOINT LeftArm
						{
							OFFSET 15.6065 0 0
							CHANNELS 3 Yrotation Xrotation Zrotation
							JOINT LeftForeArm
							{
								OFFSET 25.8005 0 0
								CHANNELS 3 Yrotation Xrotation Zrotation
								JOINT LeftHand
								{
									OFFSET 24.1595 0 0
									CHANNELS 3 Yrotation Xrotation Zrotation
									End Site
									{
										OFFSET 15 0 0
									}
								}
							}
						}
					}
					JOINT RightShoulder
					{
						OFFSET -1.69766 8.35598 3.39532
						CHANNELS 3 Yrotation Xrotation Zrotation
						JOINT RightArm
						{
							OFFSET -15.6065 0 0
							CHANNELS 3 Yrotation Xrotation Zrotation
							JOINT RightForeArm
							{
								OFFSET -25.8005 0 0
								CHANNELS 3 Yrotation Xrotation Zrotation
								JOINT RightHand
								{
									OFFSET -24.1595 0 0
									CHANNELS 3 Yrotation Xrotation Zrotation
									End Site
									{
										OFFSET -15 0 0
									}
								}
							}
						}
					}
				}
			}
		}
	}
	JOINT LeftUpLeg
	{
		OFFSET 10.186 -3.39532 2
		CHANNELS 3 Yrotation Xrotation Zrotation
		JOINT LeftLeg
		{
			OFFSET -0 -40.8746 2.37672
			CHANNELS 3 Yrotation Xrotation Zrotation
			JOINT LeftFoot
			{
				OFFSET -0 -40.8058 -2.37672
				CHANNELS 3 Yrotation Xrotation Zrotation
				JOINT LeftToeBase
				{
					OFFSET -0 -6.55466 15.2789
					CHANNELS 3 Yrotation Xrotation Zrotation
					End Site
					{
						OFFSET 0 0 5
					}
				}
			}
		}
	}
	JOINT RightUpLeg
	{
		OFFSET -10.186 -3.39532 2
		CHANNELS 3 Yrotation Xrotation Zrotation
		JOINT RightLeg
		{
			OFFSET -0 -40.8746 2.37672
			CHANNELS 3 Yrotation Xrotation Zrotation
			JOINT RightFoot
			{
				OFFSET -0 -40.8058 -2.37672
				CHANNELS 3 Yrotation Xrotation Zrotation
				JOINT RightToeBase
				{
					OFFSET -0 -6.55466 15.2789
					CHANNELS 3 Yrotation Xrotation Zrotation
					End Site
					{
						OFFSET 0 0 5
					}
				}
			}
		}
	}
}
MOTION
Frames: 14
Frame Time: 0.00833333
4.850106 92.816321 32.302615 67.377937 6.501942 2.819341 -0.454297 4.756782 -1.847046 -1.362639 3.352462 -1.887032 -0.739258 2.796009 -1.957457 -1.936836 2.188378 -1.787859 -30.995721 -12.397803 1.979992 -15.015041 0.072481 12.887133 15.209728 12.504858 -2.475281 -53.190211 0.116943 -44.790056 -71.455361 10.520300 -7.720511 8.898601 13.254229 -49.496388 -11.785373 9.090063 5.249714 57.933924 -4.214881 51.819174 61.255052 7.958257 10.077444 -13.677355 7.274218 45.219557 7.685405 -13.523198 7.579155 0.000000 20.133845 0.000000 3.489433 1.738566 -7.935360 0.000000 -7.356269 0.000000 -7.757854 -19.734327 -11.389553 0.000000 24.575496 0.000000 -9.133430 -4.075274 10.155967 0.000000 -0.268020 0.000000
5.134581 93.073584 31.847079 67.643816 7.258614 2.841662 -0.482606 4.305256 -1.951269 -1.334079 2.726836 -1.749784 -0.749376 2.528973 -1.723745 -1.703293 1.993272 -1.717452 -30.990814 -12.140977 1.465900 -14.980325 0.191206 12.843485 15.724794 12.600158 -2.439129 -52.642019 -0.225997 -46.818909 -70.317763 10.673228 -7.396502 8.932227 14.310537 -49.160618 -12.111424 9.239151 5.369304 55.737205 -3.824785 53.039458 61.604688 8.282945 10.484101 -13.819017 6.674210 44.916281 8.294124 -13.065814 6.963488 0.000000 17.848950 0.000000 3.201717 1.819277 -7.675612 0.000000 -6.875055 0.000000 -6.603429 -19.740985 -11.695498 0.000000 23.459930 0.000000 -10.639433 -2.913559 9.831800 0.000000 -0.597270 0.000000
5.415447 93.337006 31.417892 67.893773 7.998821 2.835523 -0.513581 3.627036 -1.966293 -1.281603 2.329642 -1.734366 -0.680753 2.336755 -1.660498 -1.548138 1.781337 -1.458910 -31.060805 -11.930725 1.142838 -14.923952 0.398418 12.477447 16.245579 12.460318 -2.117359 -52.289454 -0.487553 -48.981968 -69.064237 10.358877 -7.043061 8.949251 15.602554 -49.131592 -12.234121 9.056127 5.358480 52.974695 -3.472193 54.573463 62.093883 8.394278 11.197277 -13.940595 6.889637 44.606751 8.916555 -12.748877 6.401892 0.000000 15.840688 0.000000 2.764611 2.089351 -7.261301 0.000000 -6.590207 0.000000 -5.551687 -19.731605 -11.841549 0.000000 22.398681 0.000000 -12.488542 -2.139883 8.918180 0.000000 -0.429259 0.000000
5.681254 93.571948 31.010098 68.120115 8.627082 2.807453 -0.576590 3.075950 -2.039899 -1.281694 1.866495 -1.697580 -0.600863 2.026011 -1.530106 -1.358891 1.723488 -1.302023 -31.156465 -11.481885 1.064354 -14.841034 0.440147 11.998883 16.602991 12.046551 -1.559331 -51.775513 -0.721830 -51.307219 -67.980836 10.615757 -6.840648 8.319459 16.879883 -48.647924 -12.371691 8.960289 5.181509 51.164597 -2.775171 56.025027 62.402511 8.314160 11.145706 -14.241797 6.919514 43.964709 9.340934 -12.385655 5.922248 0.000000 13.957985 0.000000 2.480242 2.411890 -6.880375 0.000000 -6.401652 0.000000 -4.608421 -19.587599 -11.834294 0.000000 21.279593 0.000000 -14.830702 -1.487071 7.802108 0.000000 -0.542832 0.000000
5.962045 93.802716 30.675543 68.289263 9.058440 2.667292 -0.541700 2.576783 -2.215448 -1.244702 1.512180 -1.581585 -0.679570 1.752909 -1.119921 -1.214480 1.605204 -1.300612 -31.139274 -10.975243 0.814091 -14.712231 0.621221 11.630428 17.127327 11.886530 -1.038491 -51.645824 -0.716687 -53.022354 -67.127251 10.891793 -6.632384 8.416027 17.112867 -48.297876 -12.556720 8.870752 4.990469 49.957218 -1.969258 57.278351 62.576066 8.178877 10.937091 -14.483648 6.982387 43.262272 9.640278 -11.869458 5.651963 0.000000 12.208501 0.000000 2.247827 2.770445 -6.522268 0.000000 -6.178211 0.000000 -3.966883 -19.278894 -11.488080 0.000000 20.233899 0.000000 -17.360723 -1.146554 6.114279 0.000000 -0.502516 0.000000
6.221357 94.000781 30.369327 68.519147 9.449751 2.514204 -0.533209 2.134664 -2.337291 -1.208879 1.204898 -1.541735 -0.611584 1.475884 -0.954230 -1.151919 1.388002 -0.974669 -31.275353 -10.437000 0.751266 -14.602907 0.818467 10.904398 17.571160 11.590625 -0.470072 -51.456132 -0.788375 -54.704185 -66.379073 10.960265 -6.925978 8.623534 17.340380 -47.221286 -12.819285 8.795923 4.697203 48.794590 -1.142659 58.483792 62.900192 8.076325 10.690010 -14.489911 7.361900 42.571528 9.822733 -11.391987 5.430746 0.000000 10.586603 0.000000 2.037749 3.116095 -6.017669 0.000000 -5.926164 0.000000 -3.723278 -19.026590 -10.995751 0.000000 19.414603 0.000000 -18.829728 -0.914018 5.086823 0.000000 -1.016636 0.000000
6.458310 94.182513 30.102811 68.768409 9.838743 2.223273 -0.553127 1.694979 -2.401737 -1.201917 0.847611 -1.428294 -0.590499 1.205631 -0.682845 -1.044070 1.179028 -0.761845 -31.327299 -9.768770 0.612109 -14.463502 0.915701 10.181079 17.828411 11.322728 -0.011940 -51.530306 -0.484772 -56.063836 -65.766527 10.805056 -6.825757 8.643242 17.505650 -46.538735 -13.151133 8.725754 4.492534 47.810196 -0.366742 59.471000 63.206129 8.183301 10.525335 -14.624432 6.926438 42.254823 9.686620 -11.009726 5.404635 0.000000 9.121341 0.000000 2.119078 3.385410 -5.469407 0.000000 -5.597193 0.000000 -3.784513 -18.917922 -10.241966 0.000000 18.996864 0.000000 -19.010957 -1.173087 5.305591 0.000000 -1.234859 0.000000
6.721607 94.336194 29.872037 69.013195 10.012014 1.981035 -0.561684 1.261299 -2.455145 -1.159909 0.735631 -1.392033 -0.633359 1.006425 -0.527812 -1.045031 0.853135 -0.516386 -31.389325 -8.972127 0.485579 -14.339451 1.128319 9.692093 18.119187 11.010970 0.406758 -51.272812 -0.275568 -57.032108 -65.588469 11.025054 -7.555468 8.927597 16.998187 -45.234135 -13.411789 8.478651 4.415857 46.949983 0.551813 60.483203 63.675875 8.511523 10.335266 -14.404959 7.409144 41.984351 9.420882 -10.444159 5.403587 0.000000 7.790636 0.000000 2.316926 3.714461 -4.987210 0.000000 -5.492677 0.000000 -4.086930 -18.679840 -9.460646 0.000000 18.972145 0.000000 -17.967167 -1.868206 5.871786 0.000000 -2.141854 0.000000
6.993282 94.472205 29.677039 69.190848 10.042839 1.767463 -0.609360 1.015867 -2.656267 -1.153787 0.428906 -1.309506 -0.687976 0.736718 -0.175393 -0.901258 0.774139 -0.427101 -31.431464 -8.254659 0.591633 -14.166825 1.422192 8.630151 18.319124 10.798108 0.657038 -51.392401 0.156432 -57.547320 -65.413141 10.737515 -8.015741 9.319070 16.932082 -43.989047 -13.474811 8.311991 4.488624 45.576538 1.211238 61.265954 64.303258 9.162495 10.469758 -14.624424 6.808910 42.135188 8.659335 -9.623099 5.473907 0.000000 6.404821 0.000000 3.055374 4.066131 -4.462402 0.000000 -5.386142 0.000000 -4.764175 -18.410974 -8.560288 0.000000 19.206676 0.000000 -16.172961 -3.016091 6.857124 0.000000 -2.668686 0.000000
7.274863 94.592365 29.524573 69.358837 9.879231 1.428685 -0.646267 0.723415 -2.716007 -1.110432 0.299212 -1.243140 -0.747826 0.562465 0.013495 -0.907963 0.724762 -0.178396 -31.296713 -7.472527 0.626282 -13.946918 1.794916 7.767023 18.469392 10.617244 0.852040 -51.502261 0.551056 -57.901153 -65.376312 10.824466 -8.350917 9.549276 16.296475 -43.243963 -13.605847 8.342221 4.711691 44.618471 1.674216 61.491487 64.802371 9.548012 10.809321 -14.488415 6.664998 42.019767 8.103005 -8.632298 5.722008 0.000000 5.045224 0.000000 3.533778 4.344043 -4.040814 0.000000 -5.170702 0.000000 -5.807833 -17.953454 -7.392120 0.000000 19.495993 0.000000 -14.000035 -4.111149 8.048218 0.000000 -3.600737 0.000000
7.574304 94.702795 29.369940 69.329134 9.721485 1.070819 -0.679891 0.436309 -2.678971 -1.056675 0.087354 -1.177316 -0.678866 0.451220 0.088978 -0.859614 0.548462 0.105226 -31.152179 -6.565730 0.400294 -13.743553 2.169578 7.028633 18.521739 10.554965 0.836540 -51.714009 1.108244 -58.007160 -65.347706 11.071108 -8.592884 9.537435 15.214687 -42.961565 -13.814225 8.514998 5.027205 43.764799 2.124778 61.459369 65.195121 9.567581 11.252869 -14.673172 6.759110 41.812015 7.755022 -7.588701 5.969239 0.000000 3.655917 0.000000 3.981137 4.624453 -3.648137 0.000000 -5.020029 0.000000 -6.729873 -17.515204 -6.179462 0.000000 19.853424 0.000000 -11.918015 -5.235278 9.682976 0.000000 -4.225910 0.000000
7.852116 94.789594 29.237881 69.336389 9.330602 0.675391 -0.713921 0.321770 -2.711925 -1.012019 -0.021728 -1.080810 -0.774315 0.313789 0.319618 -0.859658 0.437791 0.276845 -30.948265 -5.598960 0.397438 -13.514679 2.546617 5.947999 18.538737 10.252990 0.953672 -51.611490 1.510667 -58.341018 -65.461359 11.399352 -9.001067 9.727150 14.358064 -42.529022 -13.544977 8.441787 5.392277 42.067578 2.321295 61.585483 65.724715 9.994991 12.094804 -14.851411 6.684090 42.152901 7.211081 -6.448481 6.344870 0.000000 2.539096 0.000000 4.496177 4.841178 -3.390436 0.000000 -4.948716 0.000000 -7.557741 -16.793797 -4.951877 0.000000 20.242999 0.000000 -10.250400 -6.374416 11.924769 0.000000 -5.113669 0.000000
8.124772 94.860980 29.074390 69.208675 9.014223 0.322902 -0.720177 0.087464 -2.625131 -0.942173 -0.135380 -1.047486 -0.729110 0.169406 0.325329 -0.895416 0.276266 0.571613 -30.685501 -4.387208 0.090772 -13.286667 2.938899 5.300182 18.307983 9.883645 1.038056 -51.384978 1.984913 -58.817013 -65.414577 11.228027 -9.360352 9.946564 13.600303 -42.363912 -13.324250 8.365870 5.791671 41.039337 2.882884 61.565172 66.066117 10.127892 12.445271 -14.944005 6.296322 42.658721 6.783968 -5.373495 6.625070 0.000000 1.443742 0.000000 5.061790 5.079641 -3.027796 0.000000 -4.954498 0.000000 -8.182241 -16.178182 -3.859287 0.000000 20.629312 0.000000 -8.622340 -7.465338 14.489509 0.000000 -5.868621 0.000000
8.436738 94.917725 28.929315 68.999435 8.492157 0.042271 -0.750137 -0.072325 -2.699895 -0.922675 -0.218432 -0.894637 -0.772277 0.117657 0.643746 -0.701470 0.265479 0.466925 -30.406863 -3.465035 -0.256647 -13.074540 3.637411 4.724768 18.147085 9.435064 1.102477 -51.085859 2.185238 -58.932410 -65.282696 10.937221 -10.283795 10.034938 13.156934 -41.843976 -13.329586 8.375199 6.227396 40.256688 3.033071 61.249583 66.092696 9.621930 13.009045 -14.962523 6.651070 42.715724 6.549801 -3.980391 6.842509 0.000000 0.214678 0.000000 5.522289 5.410160 -2.704815 0.000000 -4.929068 0.000000 -8.493019 -15.258058 -2.987449 0.000000 20.859653 0.000000 -7.056786 -8.458068 17.428555 0.000000 -6.378551 0.000000
